***************************************************************

[IMG]http://www.torrentforce.org/imghost/3/greyshadow_tfbanner.png[/IMG]

***************************************************************

[IMG]http://www.torrentforce.org/imghost/4/greyshadow_super8.jpg[/IMG]

***************************************************************

FILM TITLE: Super 8 (2011)

***************************************************************

Genre: Mystery | Sci-Fi | Thriller   

Rated PG-13 for intense sequences of sci-fi action and violence, language and some drug use

Release: 5 August 2011 (UK)

Director: J.J. Abrams

Writer: J.J. Abrams 

Stars: Elle Fanning, Amanda Michalka and Kyle Chandler

Country: USA 

Language: English 

Plot:
During the summer of 1979, a group of friends witness a train crash 
and investigate subsequent unexplained events in their small town.

IMDB Rating: 7.3/10 from 79,935 users   Metascore: 72/100
 
http://www.imdb.com/title/tt1650062/ 

****************************************************************

[IMG]http://www.torrentforce.org/imghost/4/greyshadow_super8vdub.png[/IMG]
[IMG]http://www.torrentforce.org/imghost/4/greyshadow_super8xvid1.png[/IMG]
[IMG]http://www.torrentforce.org/imghost/4/greyshadow_super8xvid2.png[/IMG]
[IMG]http://www.torrentforce.org/imghost/4/greyshadow_super8xvid3.png[/IMG]
[IMG]http://www.torrentforce.org/imghost/4/greyshadow_super8xvid4.png[/IMG]

****************************************************************

[IMG]http://www.torrentforce.org/imghost/2/greyshadow_mediainfo.png[/IMG]
General
Complete name                    : Super 8 2011 720p BDRip XviD ac3 (avi) [TFRG].avi
Format                           : AVI
Format/Info                      : Audio Video Interleave
Format profile                   : OpenDML
File size                        : 3.40 GiB
Duration                         : 1h 51mn
Overall bit rate                 : 4347 Kbps
Writing library                  : VirtualDub build 32842/release

Video
ID                               : 0
Format                           : MPEG-4 Visual
Format profile                   : Simple@L5
Format settings, BVOP            : No
Format settings, QPel            : No
Format settings, GMC             : No warppoints
Format settings, Matrix          : Default (H.263)
Codec ID                         : XVID
Codec ID/Hint                    : XviD
Duration                         : 1h 51mn
Bit rate                         : 3697 Kbps
Width                            : 1280 pixels
Height                           : 528 pixels
Display aspect ratio             : 2.40:1
Frame rate                       : 23.976 fps
Color space                      : YUV
Chroma subsampling               : 4:2:0
Bit depth                        : 8 bits
Scan type                        : Progressive
Compression mode                 : Lossy
Bits/(Pixel*Frame)               : 0.228
Stream size                      : 2.89 GiB (85%)
Writing library                  : XviD 64

Audio
ID                               : 1
Format                           : AC-3
Format/Info                      : Audio Coding 3
Mode extension                   : CM (complete main)
Codec ID                         : 2000
Duration                         : 1h 51mn
Bit rate mode                    : Constant
Bit rate                         : 640 Kbps
Channel(s)                       : 6 channels
Channel positions                : Front: L C R, Side: L R, LFE
Sampling rate                    : 48.0 KHz
Bit depth                        : 16 bits
Compression mode                 : Lossy
Stream size                      : 512 MiB (15%)
Alignment                        : Aligned on interleaves
Interleave, duration             : 42 ms (1.00 video frame)
Interleave, preload duration     : 512 ms

****************************************************************

Video Source: Super 8 2011 BluRay 1080p AVC TrueHD7.1-CHDBits (46.2GB)

Thanks: (chdbits.org)

****************************************************************

I provide a small sample, so please download this to check your 
compatibility first if you are unsure.

****************************************************************

7th October 2011

I am re-introducing my warning to all downloaders, please please
please use a proxy or vpn service, it is the only secure way to
keep your own ip address from being seen during downloading or
uploading/seeding, this WILL stop isp letters, as for advice to 
which one then thats simple, vpntunnel.se server based in Sweden 
is the right one to use, I have cancelled my vpn and transfered 
to a Swedish one already !!! enough said. 

****************************************************************

A big thanks to all the sites out there who care and share and
who make it possible for you to download this torrent for free.

Greetz to Westy, Ripwyn, mustang, noir, Blackjesus, MXMG, The Stig 
and all the other outstanding members of our community of file 
sharers and a special mention to our friends at 1337x.

****************************************************************